<?xml version="1.0" standalone="no"?>
<!DOCTYPE svg PUBLIC "-//W3C//DTD SVG 20010904//EN"
 "http://www.w3.org/TR/2001/REC-SVG-20010904/DTD/svg10.dtd">
<svg version="1.0" xmlns="http://www.w3.org/2000/svg"
 width="512.000000pt" height="512.000000pt" viewBox="0 0 512.000000 512.000000"
 preserveAspectRatio="xMidYMid meet">
<metadata>
Created by potrace 1.14, written by Peter Selinger 2001-2017
</metadata>
<g transform="translate(0.000000,512.000000) scale(0.100000,-0.100000)"
fill="#000000" stroke="none">
<path d="M2242 4924 c-147 -31 -290 -110 -385 -210 -49 -52 -133 -174 -121
-174 4 0 2 -6 -4 -13 -6 -7 -12 -31 -13 -54 -3 -37 -9 -46 -49 -77 -57 -44
-104 -94 -131 -143 -25 -44 -71 -163 -64 -163 3 0 1 -9 -5 -19 -5 -11 -13 -36
-16 -56 -3 -21 -8 -47 -10 -59 -16 -73 -22 -278 -10 -356 12 -81 30 -155 56
-227 l20 -53 -44 -19 c-42 -20 -91 -78 -103 -124 -8 -30 -13 -348 -6 -367 3
-8 8 -23 10 -34 9 -46 83 -118 136 -131 31 -8 39 -17 42 -54 14 -134 94 -326
192 -456 94 -126 227 -240 356 -305 20 -10 27 -21 27 -44 1 -50 1 -259 1 -283
-1 -19 -6 -21 -66 -21 -36 0 -65 5 -65 10 0 11 -74 1 -100 -12 -9 -5 -34 -11
-56 -14 -23 -4 -55 -11 -72 -16 -18 -5 -32 -6 -32 -3 0 3 -7 0 -15 -7 -8 -7
-15 -10 -15 -7 0 10 -170 -53 -245 -90 -64 -32 -183 -107 -195 -123 -3 -3 -16
-13 -28 -22 -71 -48 -282 -279 -282 -307 0 -6 -4 -11 -9 -11 -5 0 -13 -10 -17
-22 -4 -13 -10 -25 -13 -28 -29 -21 -141 -302 -141 -351 0 -11 -5 -19 -11 -19
-5 0 -8 -4 -5 -9 3 -4 -1 -44 -8 -87 -8 -44 -15 -143 -15 -221 l-2 -143 1831
0 1830 0 0 137 c0 75 -5 166 -11 202 -13 87 -48 232 -60 253 -5 10 -9 22 -9
28 0 24 -92 203 -145 280 -69 101 -178 220 -280 302 -56 46 -153 107 -159 101
-3 -4 -6 -2 -6 4 0 8 -46 35 -60 35 -3 0 -19 8 -36 19 -30 18 -122 54 -169 65
-11 3 -27 7 -35 9 -8 2 -15 4 -15 5 0 3 -39 11 -120 25 -22 4 -45 11 -50 15
-14 12 -105 21 -105 11 0 -4 -29 -9 -65 -10 -57 -2 -65 0 -66 16 0 23 0 204 1
268 0 53 3 57 95 103 17 9 32 18 35 22 3 3 28 22 55 42 94 68 275 282 275 325
0 7 5 13 10 13 6 0 9 3 8 8 -1 4 8 27 19 52 44 98 68 184 77 269 1 17 16 30
60 52 115 57 134 105 131 334 -2 192 -4 203 -41 257 -25 35 -93 78 -125 78 -7
0 -6 8 5 23 36 50 72 152 91 257 15 79 15 369 1 425 -4 17 -9 35 -10 40 -12
48 -20 71 -26 80 -4 6 -11 21 -15 33 -12 40 -78 145 -116 186 l-37 40 27 40
c31 47 48 86 57 136 8 48 11 113 5 125 -3 6 -7 17 -8 25 -1 8 -4 25 -6 37 -1
11 -9 29 -17 39 -8 9 -13 18 -10 20 15 9 -76 84 -118 98 -69 22 -130 15 -224
-27 -32 -14 -58 -23 -58 -20 0 3 -7 0 -15 -7 -8 -7 -15 -9 -15 -5 0 4 -6 3
-12 -3 -13 -10 -120 -28 -148 -24 -8 1 -35 4 -60 7 -79 9 -96 13 -187 38 -48
13 -110 30 -138 37 -70 17 -248 19 -323 4z"/>
</g>
</svg>
