<?xml version="1.0" standalone="no"?>
<!DOCTYPE svg PUBLIC "-//W3C//DTD SVG 20010904//EN"
 "http://www.w3.org/TR/2001/REC-SVG-20010904/DTD/svg10.dtd">
<svg version="1.0" xmlns="http://www.w3.org/2000/svg"
 width="720.000000pt" height="720.000000pt" viewBox="0 0 720.000000 720.000000"
 preserveAspectRatio="xMidYMid meet">
<metadata>
Created by potrace 1.14, written by Peter Selinger 2001-2017
</metadata>
<g transform="translate(0.000000,720.000000) scale(0.100000,-0.100000)"
fill="#000000" stroke="none">
<path d="M2995 7124 c-77 -13 -194 -37 -260 -53 -153 -37 -435 -130 -435 -143
0 -5 71 -294 159 -641 87 -348 159 -641 159 -652 1 -11 33 -146 72 -300 398
-1568 414 -1635 414 -1735 0 -100 -16 -167 -414 -1735 -39 -154 -71 -289 -72
-300 0 -11 -72 -304 -159 -652 -88 -347 -159 -636 -159 -641 0 -13 248 -95
416 -137 180 -45 445 -90 453 -76 3 5 101 386 216 845 116 459 213 832 216
828 5 -6 278 -1086 393 -1554 30 -122 32 -128 56 -128 51 0 319 52 465 90 142
36 369 111 383 125 4 4 -64 288 -151 632 -87 344 -156 627 -154 629 2 2 180
-230 396 -517 l392 -520 47 27 c93 52 329 214 422 289 120 96 250 213 250 226
0 5 -74 107 -164 227 -90 120 -169 227 -176 239 -13 19 20 54 515 544 290 288
557 560 592 604 222 277 333 593 333 952 0 261 -44 454 -155 678 -107 216
-160 277 -760 875 -488 486 -535 537 -524 555 6 10 85 117 175 237 90 120 164
222 164 227 0 13 -130 130 -250 226 -103 83 -321 233 -412 284 l-56 32 -393
-520 c-216 -286 -394 -519 -396 -517 -2 2 67 285 154 630 135 536 156 628 143
636 -27 17 -282 98 -405 129 -125 32 -391 81 -435 81 -24 0 -27 -6 -51 -108
-99 -403 -393 -1568 -398 -1574 -3 -4 -98 359 -210 805 -113 447 -208 827
-213 845 -11 38 -1 38 -183 6z m2661 -2630 c254 -251 481 -479 503 -507 89
-116 131 -241 131 -387 0 -143 -42 -270 -126 -380 -36 -48 -973 -975 -978
-969 -115 142 -762 1015 -788 1064 -49 94 -68 174 -68 285 0 108 18 188 64
278 26 52 781 1070 795 1072 2 0 212 -205 467 -456z"/>
<path d="M889 5123 c-484 -486 -575 -582 -628 -663 -114 -172 -193 -355 -236
-550 -26 -113 -32 -431 -11 -554 45 -261 155 -508 319 -711 64 -79 1121 -1136
1135 -1134 4 0 130 164 279 364 l273 364 -475 467 c-261 258 -490 489 -509
514 -47 62 -91 152 -111 230 -24 92 -17 261 14 350 48 137 66 158 587 675
l494 490 -220 290 c-121 160 -244 322 -273 362 -28 40 -57 72 -62 73 -6 0
-265 -255 -576 -567z"/>
</g>
</svg>
