<?xml version="1.0" standalone="no"?>
<!DOCTYPE svg PUBLIC "-//W3C//DTD SVG 20010904//EN"
 "http://www.w3.org/TR/2001/REC-SVG-20010904/DTD/svg10.dtd">
<svg version="1.0" xmlns="http://www.w3.org/2000/svg"
 width="512.000000pt" height="512.000000pt" viewBox="0 0 512.000000 512.000000"
 preserveAspectRatio="xMidYMid meet">
<metadata>
Created by potrace 1.14, written by Peter Selinger 2001-2017
</metadata>
<g transform="translate(0.000000,512.000000) scale(0.100000,-0.100000)"
fill="#000000" stroke="none">
<path d="M2250 4926 c-86 -19 -136 -38 -223 -83 -144 -76 -288 -246 -306 -364
-7 -40 -15 -57 -32 -69 -177 -114 -267 -363 -256 -705 5 -165 22 -252 67 -351
l29 -64 -40 0 c-52 0 -79 -15 -79 -43 0 -37 19 -47 93 -47 58 0 68 -3 63 -15
-16 -43 -17 -144 -2 -209 21 -89 56 -153 118 -215 220 -218 578 -153 712 129
27 59 31 77 36 190 6 142 17 171 75 196 46 19 74 18 112 -6 57 -35 67 -61 73
-195 5 -107 9 -127 36 -185 134 -284 494 -347 714 -126 90 90 139 227 125 349
-3 32 -9 65 -12 73 -4 11 8 14 64 14 73 0 93 10 93 45 0 37 -19 45 -111 45
l-87 0 -35 48 c-41 55 -102 101 -184 140 -56 26 -63 27 -238 27 -198 -1 -235
-8 -235 -49 0 -13 7 -27 16 -30 13 -5 8 -15 -27 -54 -24 -26 -51 -58 -60 -72
l-16 -25 -40 37 c-39 35 -123 64 -155 54 -7 -3 -25 -7 -40 -10 -14 -3 -47 -22
-72 -41 -45 -34 -46 -34 -57 -13 -7 12 -32 43 -57 70 -36 39 -41 49 -28 54 9
3 16 17 16 30 0 41 -37 48 -235 49 -176 0 -181 -1 -239 -28 -78 -36 -148 -90
-186 -144 -17 -24 -39 -43 -49 -43 -17 0 -18 9 -16 108 1 59 10 145 20 192 23
115 79 285 112 342 58 99 232 298 261 298 5 0 34 -20 65 -44 173 -135 559
-193 836 -126 84 20 242 88 255 109 12 18 34 13 42 -11 3 -11 64 -80 135 -153
128 -131 128 -131 158 -220 16 -50 46 -169 66 -265 20 -96 41 -179 46 -184 32
-34 106 137 128 297 17 124 13 299 -9 402 -24 110 -91 250 -155 323 l-47 52
27 31 c40 48 56 97 62 185 8 114 -14 184 -75 245 -53 53 -112 74 -178 65 -23
-3 -89 -24 -145 -48 -102 -42 -106 -42 -224 -42 -102 -1 -135 4 -220 28 -170
49 -207 56 -315 61 -70 3 -127 0 -170 -9z m-113 -1525 c88 -42 144 -97 183
-182 28 -62 33 -82 33 -151 0 -71 -4 -86 -37 -153 -40 -82 -100 -140 -183
-178 -38 -17 -66 -22 -138 -22 -78 0 -98 4 -150 28 -78 37 -147 104 -181 181
-24 51 -28 74 -29 146 0 75 4 92 32 150 18 36 43 78 56 94 24 27 25 28 31 8
13 -40 43 -37 92 8 45 41 109 74 174 90 52 12 50 12 117 -19z m1026 -3 c34
-12 78 -39 107 -65 53 -48 83 -51 96 -11 6 20 7 19 31 -8 13 -16 38 -58 56
-94 27 -57 31 -76 31 -150 1 -72 -4 -94 -27 -145 -36 -78 -104 -146 -181 -182
-53 -24 -73 -28 -151 -28 -82 0 -97 3 -157 33 -79 39 -128 91 -171 180 -25 54
-30 76 -30 142 0 67 5 88 32 147 42 89 90 138 176 179 77 37 91 37 188 2z"/>
<path d="M2024 3161 c-60 -37 -66 -116 -12 -168 23 -22 39 -28 74 -28 39 0 50
5 75 33 22 24 29 42 29 73 0 51 -13 75 -50 94 -39 20 -79 19 -116 -4z"/>
<path d="M2934 3126 c-57 -26 -107 -84 -102 -116 3 -20 4 -20 42 6 85 58 185
68 281 29 79 -33 92 -19 34 39 -70 70 -163 85 -255 42z"/>
<path d="M2305 2390 c-4 -6 -3 -25 0 -43 33 -149 189 -240 337 -195 82 24 166
126 171 206 l2 37 -252 3 c-166 1 -254 -1 -258 -8z"/>
<path d="M1910 1484 c-25 -8 -86 -23 -137 -35 -253 -55 -456 -164 -643 -345
-259 -250 -399 -594 -400 -981 l0 -123 1831 0 1832 0 -6 168 c-4 112 -13 199
-27 265 -107 503 -501 903 -995 1012 -38 8 -105 25 -147 37 -43 12 -80 19 -84
16 -3 -4 0 -40 6 -82 14 -91 6 -110 -73 -183 -241 -219 -752 -221 -991 -2 -87
80 -100 106 -93 195 8 84 8 84 -73 58z m1862 -955 c29 -23 54 -45 56 -49 1 -4
-62 -13 -140 -19 -79 -7 -153 -14 -165 -17 -45 -9 -20 31 52 85 94 71 108 71
197 0z"/>
</g>
</svg>
