<?xml version="1.0" standalone="no"?>
<!DOCTYPE svg PUBLIC "-//W3C//DTD SVG 20010904//EN"
 "http://www.w3.org/TR/2001/REC-SVG-20010904/DTD/svg10.dtd">
<svg version="1.0" xmlns="http://www.w3.org/2000/svg"
 width="892.000000pt" height="892.000000pt" viewBox="0 0 892.000000 892.000000"
 preserveAspectRatio="xMidYMid meet">
<metadata>
Created by potrace 1.14, written by Peter Selinger 2001-2017
</metadata>
<g transform="translate(0.000000,892.000000) scale(0.100000,-0.100000)"
fill="#000000" stroke="none">
<path d="M3785 8820 c-154 -23 -336 -62 -500 -106 -167 -45 -435 -135 -435
-147 0 -5 88 -358 196 -785 108 -427 197 -792 199 -811 2 -20 27 -126 56 -236
28 -110 55 -220 60 -244 5 -24 18 -74 29 -111 11 -37 24 -87 29 -111 5 -24 57
-233 116 -464 59 -231 115 -454 125 -495 10 -41 55 -219 100 -395 l83 -320 0
-140 0 -140 -83 -320 c-45 -176 -88 -345 -95 -375 -7 -30 -61 -244 -120 -475
-59 -231 -114 -449 -122 -485 -8 -36 -23 -95 -34 -131 -10 -37 -23 -86 -28
-110 -5 -24 -32 -134 -61 -244 -28 -110 -53 -216 -55 -235 -2 -19 -91 -384
-199 -811 -108 -427 -196 -779 -196 -783 0 -22 410 -150 647 -202 116 -25 424
-76 429 -71 2 2 239 937 471 1859 32 125 60 224 64 220 3 -4 99 -376 212 -827
310 -1232 313 -1244 319 -1251 9 -8 220 23 381 57 217 45 406 98 610 170 63
23 87 36 87 49 0 15 -122 505 -315 1265 -41 159 -73 291 -71 292 1 2 131 -167
288 -374 628 -831 691 -913 698 -913 26 0 300 177 465 300 171 127 425 344
425 363 0 4 -99 138 -220 297 -121 159 -220 294 -220 299 0 5 284 289 631 632
348 343 665 661 705 707 242 276 410 646 454 1002 15 122 12 389 -5 502 -52
350 -199 675 -425 943 -37 45 -358 368 -714 720 -355 351 -646 643 -646 648 0
4 99 139 220 298 121 160 220 294 220 298 0 21 -321 289 -500 418 -105 76
-371 243 -387 243 -6 0 -198 -246 -426 -547 -557 -737 -561 -742 -563 -740 -2
1 81 331 182 732 223 883 212 834 195 844 -25 16 -316 110 -446 145 -231 62
-608 128 -625 110 -4 -5 -19 -56 -32 -114 -14 -58 -118 -474 -232 -925 -114
-451 -219 -865 -232 -920 -14 -55 -28 -107 -31 -115 -5 -15 -51 157 -273 1040
-237 939 -263 1040 -274 1039 -6 -1 -65 -9 -131 -19z m3859 -3904 c51 -67 111
-196 132 -282 22 -90 22 -267 1 -356 -20 -81 -63 -178 -111 -251 -32 -48
-1116 -1140 -1204 -1212 -28 -24 -35 -26 -46 -14 -7 8 -89 115 -183 239 -93
124 -297 393 -453 599 -155 205 -300 403 -320 438 -21 35 -51 103 -67 151 -25
79 -28 100 -28 227 0 119 4 151 23 215 40 126 82 192 355 552 144 190 321 424
392 518 72 95 167 221 213 281 l83 110 587 -582 c323 -320 605 -604 626 -633z"/>
</g>
</svg>
